# xmcd CD database file generated by Grip 3.2.0
# 
# Track frame offsets:
#       150
#       6428
#       21076
#       40901
#       54225
#       67106
#       91971
#       109567
#       125192
#       133592
#       153899
#       168930
#       187932
# 
# Disc length: 2788 seconds
# 
# Revision: 1
# Processed by: cddbd v1.5.1PL0 Copyright (c) Steve Scherf et al.
# Submitted via: Grip 3.2.0
# 
DISCID=a50ae20d
DTITLE=Smokin' J's - Smokin' J's
DYEAR=2001
DGENRE=Blues
TTITLE0=C-Train
TTITLE1=Crossroads
TTITLE2=Early In The Morning
TTITLE3=Sake Blues
TTITLE4=Slide Eclipse
TTITLE5=Ramblin' On My Mind
TTITLE6=Hiro To Kazu
TTITLE7=Somebody Stole My Gal
TTITLE8=Homesick Ballad
TTITLE9=Saints Go Marching In
TTITLE10=Gypsy Mojo
TTITLE11=Rocks
TTITLE12=J's Boogie
EXTD=
EXTT0=
EXTT1=
EXTT2=
EXTT3=
EXTT4=
EXTT5=
EXTT6=
EXTT7=
EXTT8=
EXTT9=
EXTT10=
EXTT11=
EXTT12=
PLAYORDER=
